<svg width="100" height="100" xmlns="http://www.w3.org/2000/svg">
 <!-- Created with Method Draw - http://github.com/duopixel/Method-Draw/ -->
 <defs>
  <linearGradient y2="0.601563" x2="0.882813" y1="0.164063" x1="0.023438" id="svg_2">
   <stop offset="0" stop-color="#fff"/>
   <stop offset="1" stop-color="#000000"/>
  </linearGradient>
 </defs>
 <g>
  <title>background</title>
  <rect fill="#bf5f00" id="canvas_background" height="102" width="102" y="-1" x="-1"/>
  <g display="none" overflow="visible" y="0" x="0" height="100%" width="100%" id="canvasGrid">
   <rect fill="url(#gridpattern)" stroke-width="0" y="0" x="0" height="100%" width="100%"/>
  </g>
 </g>
 <g>
  <title>Layer 1</title>
  <path id="svg_1" d="m22.365888,92.239809c-3.494321,0.099381 -8.608527,-1.410587 -5.03568,-4.778877c3.889853,-1.282321 -0.691359,-5.532551 3.206945,-7.534654c3.129054,-3.726254 7.381574,-7.129071 8.664891,-11.679512c-0.199296,-3.086109 -4.60403,-4.912509 -2.502585,-8.328381c-2.061689,-5.466251 -1.58522,-11.757944 2.178244,-16.671646c3.195691,-4.563835 7.075651,-9.399566 6.666453,-14.922438c-4.008016,1.399737 -8.250542,2.626115 -12.661552,1.99044c-4.146982,-0.3221 -7.866216,2.486251 -12.096307,0.959237c-4.28795,-0.745048 -6.838475,-5.539969 -3.64136,-8.342902c3.493831,-2.495881 8.627157,-2.576205 11.959228,-5.361673c4.396296,-3.045701 8.462651,-7.165162 14.521843,-7.703599c2.678028,-0.51276 3.826669,-2.763343 5.309077,-4.449951c1.231913,2.674992 3.374532,5.040388 6.599329,6.226274c6.557636,3.17669 8.190014,9.892594 10.608288,15.41341c1.788042,4.323716 3.277704,8.837991 6.271876,12.697995c0.031834,1.852549 -3.329053,2.635571 -1.059014,4.807341c1.1806,5.890171 1.231419,11.921745 1.126759,17.880752c-1.991163,2.916165 -3.804857,6.171025 -1.148714,9.51771c1.77424,4.090575 6.192915,6.773428 8.36686,10.633502c1.228885,1.998743 -2.395731,4.90055 2.12026,4.39788c4.12416,1.824796 0.794025,6.279029 -3.30778,4.983212c-15.371623,0.326901 -30.777103,0.653332 -46.147063,0.265884l0.000003,-0.000006z" stroke-width="1.5" stroke="#000" fill="url(#svg_2)"/>
  <text stroke="#000" transform="rotate(90 84.89453125000001,48.833332061767585) matrix(-1.75,0,0,-1.4444444179534912,422.125,101.32986001297832) " xml:space="preserve" text-anchor="start" font-family="Helvetica, Arial, sans-serif" font-size="24" id="svg_5" y="44.760817" x="166.642857" stroke-opacity="null" stroke-width="0" fill="#000000">CDR</text>
 </g>
</svg>